# xmcd CD database file
#
# Track frame offsets:
#	183
#	12925
#	26220
#	42115
#	56825
#	67998
#	84240
#	97228
#	112850
#	124165
#	137370
#	145770
#	155460
#	165608
#
# Disc length: 2345 seconds
#
# Revision: 0
# Processed by: cddbd v1.4PL0 Copyright (c) Steve Scherf et al.
# Submitted via: CDex 1.50beta9
#
DISCID=b309270e
DTITLE=Louisiana Red - The Low Down Back Porch Blues
DYEAR=1962
DGENRE=Blues
TTITLE0=Red's Dream
TTITLE1=Working Man Blues
TTITLE2=I'm Louisianna Red
TTITLE3=Sweet Alesse
TTITLE4=Keep Your Hands Off My Woman
TTITLE5=I'm a Roaming Stranger
TTITLE6=Ride On Red Ride On
TTITLE7=I Wonder Who
TTITLE8=The Seventh Son
TTITLE9=Das News
TTITLE10=Two Fifty Three
TTITLE11=Don't Cry
TTITLE12=Sugar Hips
TTITLE13=I'm Too Poor
EXTD=YEAR: 1962
EXTT0=
EXTT1=
EXTT2=
EXTT3=
EXTT4=
EXTT5=
EXTT6=
EXTT7=
EXTT8=
EXTT9=
EXTT10=
EXTT11=
EXTT12=
EXTT13=
PLAYORDER=
